<?xml version="1.0" encoding="UTF-8"?>
<!DOCTYPE svg PUBLIC "-//W3C//DTD SVG 1.1//EN" "http://www.w3.org/Graphics/SVG/1.1/DTD/svg11.dtd">
<svg xmlns="http://www.w3.org/2000/svg" version="1.1" width="200px" height="200px" style="shape-rendering:geometricPrecision; text-rendering:geometricPrecision; image-rendering:optimizeQuality; fill-rule:evenodd; clip-rule:evenodd" xmlns:xlink="http://www.w3.org/1999/xlink">
<g><path style="opacity:0.809" fill="#fbfbfb" d="M 98.5,10.5 C 104.842,10.3338 111.175,10.5005 117.5,11C 139.999,24.0816 162.332,37.415 184.5,51C 187.433,53.2643 189.6,56.0976 191,59.5C 192.579,71.1085 192.912,82.7751 192,94.5C 191.349,98.6366 189.515,102.137 186.5,105C 175.609,113.605 164.943,122.439 154.5,131.5C 157.057,139.449 155.39,146.282 149.5,152C 156.005,158.51 159.672,166.343 160.5,175.5C 160.697,182.616 157.697,187.783 151.5,191C 145.388,191.909 139.388,191.576 133.5,190C 128.281,183.782 123.448,177.282 119,170.5C 113.583,171.309 108.083,171.809 102.5,172C 101.167,172.667 99.8333,173.333 98.5,174C 91.8333,174.667 85.1667,174.667 78.5,174C 57.3355,161.919 36.3355,149.586 15.5,137C 11.2811,134.448 8.11447,130.948 6,126.5C 5.33333,113.833 5.33333,101.167 6,88.5C 10.1235,82.0424 15.2902,76.5424 21.5,72C 47.3542,51.6361 73.0209,31.1361 98.5,10.5 Z M 108.5,55.5 C 115.973,59.738 123.306,64.238 130.5,69C 129.5,69.6667 128.5,69.6667 127.5,69C 120.833,65 114.167,61 107.5,57C 108.056,56.6174 108.389,56.1174 108.5,55.5 Z"/></g>
<g><path style="opacity:1" fill="#030303" d="M 103.5,19.5 C 108.618,18.889 113.285,20.0557 117.5,23C 137.833,35.3333 158.167,47.6667 178.5,60C 180.041,61.5793 181.208,63.4127 182,65.5C 182.92,75.2417 182.587,84.9084 181,94.5C 179.167,96.3333 177.333,98.1667 175.5,100C 165.586,108.202 155.42,116.035 145,123.5C 143.177,122.349 141.344,121.182 139.5,120C 138.549,119.282 138.383,118.449 139,117.5C 150.333,108.167 161.667,98.8333 173,89.5C 173.667,84.5 173.667,79.5 173,74.5C 157.978,87.0227 142.812,99.356 127.5,111.5C 121.167,107.333 114.833,103.167 108.5,99C 96.6506,97.2456 89.984,102.246 88.5,114C 90.0297,122.479 91.363,130.979 92.5,139.5C 89.8127,139.664 87.146,139.497 84.5,139C 64.3333,126.833 44.1667,114.667 24,102.5C 23.3333,107.833 23.3333,113.167 24,118.5C 44.5,131 65,143.5 85.5,156C 89.0669,157.075 92.0669,156.242 94.5,153.5C 100.019,161.692 97.686,165.692 87.5,165.5C 85.3659,165.485 83.3659,164.985 81.5,164C 59.9165,150.959 38.4165,137.792 17,124.5C 16.3333,123.167 15.6667,121.833 15,120.5C 14.3333,111.5 14.3333,102.5 15,93.5C 16.7932,90.7047 18.9598,88.2047 21.5,86C 49.0218,63.9693 76.3552,41.8026 103.5,19.5 Z M 108.5,55.5 C 108.389,56.1174 108.056,56.6174 107.5,57C 114.167,61 120.833,65 127.5,69C 128.5,69.6667 129.5,69.6667 130.5,69C 123.306,64.238 115.973,59.738 108.5,55.5 Z"/></g>
<g><path style="opacity:0.804" fill="#fafafa" d="M 106.5,43.5 C 108.655,43.372 110.655,43.872 112.5,45C 123.921,51.7925 135.088,58.9592 146,66.5C 146.667,67.8333 146.667,69.1667 146,70.5C 141.236,75.1065 136.07,79.1065 130.5,82.5C 117.341,75.8271 104.841,68.1605 93,59.5C 92.3486,57.765 92.5153,56.0983 93.5,54.5C 97.7189,50.5777 102.052,46.911 106.5,43.5 Z M 108.5,55.5 C 108.389,56.1174 108.056,56.6174 107.5,57C 114.167,61 120.833,65 127.5,69C 128.5,69.6667 129.5,69.6667 130.5,69C 123.306,64.238 115.973,59.738 108.5,55.5 Z"/></g>
<g><path style="opacity:1" fill="#040404" d="M 100.5,108.5 C 102.527,108.338 104.527,108.505 106.5,109C 119.305,117.639 131.971,126.472 144.5,135.5C 145.52,137.432 145.687,139.432 145,141.5C 141.647,143.907 138.48,146.407 135.5,149C 140.202,156.901 145.035,164.734 150,172.5C 150.989,179.175 148.156,182.342 141.5,182C 139.714,181.215 138.214,180.049 137,178.5C 132.5,171.333 128,164.167 123.5,157C 119.488,158.501 115.488,160.334 111.5,162.5C 109.893,162.363 108.559,161.696 107.5,160.5C 104.038,144.933 101.038,129.266 98.5,113.5C 98.4365,111.486 99.1032,109.819 100.5,108.5 Z"/></g>
</svg>
