<?xml version="1.0" standalone="no"?>
<!DOCTYPE svg PUBLIC "-//W3C//DTD SVG 20010904//EN"
 "http://www.w3.org/TR/2001/REC-SVG-20010904/DTD/svg10.dtd">
<svg version="1.0" xmlns="http://www.w3.org/2000/svg"
 width="1000.000000pt" height="200.000000pt" viewBox="0 0 1000.000000 200.000000"
 preserveAspectRatio="xMidYMid meet">

<g transform="translate(0.000000,200.000000) scale(0.100000,-0.100000)"
fill="#000000" stroke="none">
<path d="M1305 1788 c-47 -28 -857 -691 -871 -713 -13 -19 -15 -50 -12 -164 3
-135 4 -142 28 -164 14 -14 166 -109 338 -212 329 -196 357 -208 427 -185 36
12 36 13 30 54 -9 53 -20 64 -43 43 -10 -9 -28 -17 -39 -17 -18 0 -610 346
-641 375 -9 8 -12 35 -10 88 l3 77 300 -181 c231 -140 310 -183 343 -187 51
-6 50 -13 21 152 l-22 122 20 45 c16 36 30 51 65 68 76 36 103 29 235 -61 l72
-50 213 173 c117 94 221 179 231 187 16 14 17 11 17 -61 l0 -76 -175 -143
c-96 -78 -175 -146 -175 -150 0 -12 60 -50 73 -45 25 9 337 268 353 292 13 19
15 49 12 164 -3 125 -5 143 -23 160 -11 11 -166 109 -345 217 -336 203 -377
222 -425 192z m238 -333 c96 -57 180 -111 186 -119 7 -8 10 -24 7 -34 -6 -19
-139 -132 -155 -132 -12 0 -365 212 -373 224 -4 6 -8 19 -8 28 0 19 133 138
155 138 7 0 92 -47 188 -105z"/>
<path d="M4210 1511 c-8 -5 -41 -14 -72 -21 -65 -13 -78 -36 -28 -47 42 -8 50
-28 50 -125 l0 -84 -68 4 c-90 5 -140 -10 -195 -58 -66 -59 -91 -116 -90 -211
1 -144 65 -219 187 -219 68 0 103 16 145 67 l31 38 0 -48 c0 -29 5 -49 13 -52
6 -3 39 3 72 13 47 14 61 23 63 40 3 16 -2 22 -16 22 -45 0 -47 15 -52 358 -3
204 -9 326 -15 328 -5 2 -17 -1 -25 -5z m-70 -341 c21 -11 22 -16 18 -128 -3
-86 -8 -127 -22 -154 -46 -95 -159 -94 -208 3 -25 47 -24 160 1 216 38 82 126
108 211 63z"/>
<path d="M8118 1513 c-10 -2 -24 -26 -34 -56 -9 -29 -25 -69 -35 -89 -23 -46
-23 -48 0 -48 11 0 32 22 56 58 21 31 51 73 66 93 16 20 29 40 29 43 0 7 -56
6 -82 -1z"/>
<path d="M6282 1494 c-46 -32 -17 -114 40 -114 26 0 58 36 58 65 0 29 -32 65
-58 65 -10 0 -28 -7 -40 -16z"/>
<path d="M8900 1490 c-11 -11 -20 -31 -20 -45 0 -29 32 -65 58 -65 34 0 62 29
62 65 0 57 -60 85 -100 45z"/>
<path d="M2560 1462 c0 -14 9 -21 30 -25 21 -5 32 -14 37 -34 5 -15 8 -143 8
-283 0 -140 -3 -268 -8 -283 -5 -20 -16 -29 -37 -34 -23 -4 -30 -11 -30 -29 0
-24 0 -24 125 -24 124 0 125 0 125 23 0 17 -8 25 -32 32 -41 13 -46 30 -47
168 l-1 107 40 0 c58 0 78 -25 222 -275 l34 -60 79 4 c91 3 95 5 95 32 0 13
-7 19 -22 19 -44 0 -85 37 -138 125 -29 47 -68 107 -87 132 -19 25 -33 46 -31
47 2 2 19 9 37 16 44 18 98 64 117 101 7 15 14 52 14 82 0 67 -27 112 -90 147
-43 24 -54 25 -242 28 -191 4 -198 3 -198 -16z m357 -41 c51 -24 73 -63 73
-129 0 -96 -68 -153 -192 -160 l-68 -4 0 150 c0 171 -6 159 90 161 34 0 71 -7
97 -18z"/>
<path d="M5620 1459 c0 -13 10 -23 30 -31 17 -5 35 -18 40 -28 6 -11 10 -131
10 -287 0 -289 -3 -308 -53 -315 -14 -2 -23 -11 -25 -26 l-3 -22 242 2 243 3
12 67 c7 37 15 72 19 77 5 9 -33 37 -39 29 -1 -2 -14 -24 -29 -49 -19 -34 -37
-51 -67 -63 -69 -27 -168 -18 -192 18 -4 6 -8 133 -8 281 0 291 3 310 53 317
14 2 23 11 25 26 3 22 3 22 -127 22 -125 0 -131 -1 -131 -21z"/>
<path d="M6618 1388 l-38 -20 0 -69 0 -69 -35 0 c-19 0 -35 -4 -35 -9 0 -5 -3
-16 -6 -24 -4 -11 5 -17 35 -22 l41 -7 0 -164 c0 -228 13 -254 128 -254 69 0
134 45 105 73 -3 4 -11 3 -17 -2 -20 -15 -58 -20 -82 -11 -34 13 -45 70 -42
222 l3 133 65 10 c56 9 65 14 68 33 3 21 0 22 -67 22 l-71 0 0 90 c0 50 -3 90
-7 89 -5 0 -25 -9 -45 -21z"/>
<path d="M5078 1245 c-3 -3 -34 -12 -69 -19 -45 -9 -65 -18 -67 -29 -2 -12 3
-17 17 -17 12 0 30 -9 41 -20 18 -18 20 -33 20 -159 0 -161 -7 -189 -50 -197
-23 -5 -30 -12 -30 -30 l0 -24 135 0 135 0 0 24 c0 19 -7 25 -34 30 -51 10
-60 27 -64 131 -5 103 6 149 45 195 40 48 83 38 98 -23 7 -27 19 -32 49 -21
12 5 16 21 16 70 0 52 -3 65 -19 74 -49 25 -119 0 -163 -60 l-23 -32 -5 53
c-5 47 -17 69 -32 54z"/>
<path d="M6270 1230 c-43 -11 -66 -23 -68 -34 -3 -11 4 -16 21 -16 50 0 57
-23 57 -189 0 -84 -4 -161 -10 -171 -5 -10 -23 -23 -40 -28 -16 -6 -30 -18
-30 -26 0 -14 18 -16 120 -16 108 0 120 2 120 18 0 10 -12 22 -28 28 -38 14
-42 40 -42 272 0 208 10 191 -100 162z"/>
<path d="M7500 1234 c-25 -7 -57 -13 -71 -13 -15 -1 -30 -8 -33 -17 -9 -23 -8
-24 17 -24 13 0 31 -6 40 -13 16 -11 17 -31 15 -177 l-3 -164 -30 -16 c-16 -8
-31 -15 -31 -15 -1 0 -5 -10 -8 -22 l-7 -23 141 0 c140 0 141 0 138 22 -2 15
-13 24 -35 30 -53 14 -63 39 -63 156 0 110 18 170 59 192 42 22 81 -1 81 -46
0 -22 4 -25 28 -22 25 3 27 7 34 68 4 36 4 68 -1 73 -4 4 -23 10 -42 13 -50 8
-102 -17 -138 -67 l-31 -42 6 44 c8 64 -7 79 -66 63z"/>
<path d="M8480 1234 c-25 -7 -57 -13 -71 -13 -33 -1 -50 -41 -17 -41 10 0 28
-5 39 -10 18 -10 19 -23 19 -174 0 -145 -2 -165 -18 -179 -10 -10 -26 -17 -35
-17 -11 0 -17 -8 -17 -25 l0 -25 135 0 135 0 0 25 c0 20 -5 25 -25 25 -14 0
-37 11 -50 25 -23 22 -25 31 -25 125 0 106 12 152 49 189 41 41 91 19 91 -39
0 -17 5 -21 28 -18 25 3 28 8 36 60 10 71 6 84 -33 93 -62 13 -118 -16 -162
-85 -16 -24 -16 -24 -12 25 7 65 -6 76 -67 59z"/>
<path d="M8895 1231 c-56 -15 -74 -25 -75 -43 0 -5 9 -8 21 -8 11 0 29 -5 40
-10 18 -10 19 -23 19 -179 0 -150 -2 -170 -18 -184 -10 -10 -26 -17 -34 -17
-13 0 -28 -19 -28 -36 0 -2 57 -4 126 -4 111 0 125 2 120 16 -3 9 -6 18 -6 20
0 2 -6 4 -14 4 -8 0 -22 7 -30 16 -14 13 -16 47 -16 214 0 109 -3 205 -6 214
-7 19 -19 19 -99 -3z"/>
<path d="M3370 1217 c-30 -12 -54 -26 -52 -30 1 -4 2 -29 2 -57 0 -46 2 -50
25 -50 20 0 26 7 36 40 16 52 39 72 85 72 53 0 82 -32 90 -103 l6 -55 -68 -13
c-79 -14 -158 -53 -188 -94 -31 -41 -27 -110 7 -144 49 -49 174 -44 226 9 31
32 31 32 31 7 0 -48 12 -54 76 -36 32 9 62 21 67 26 15 15 0 41 -22 41 -11 0
-23 6 -28 13 -4 6 -10 77 -13 157 -6 162 -18 197 -76 225 -47 22 -139 19 -204
-8z m187 -276 c-8 -69 -32 -110 -73 -127 -44 -19 -84 -2 -95 39 -20 74 43 131
150 136 23 1 24 -1 18 -48z"/>
<path d="M4511 1220 c-30 -11 -56 -21 -58 -23 -2 -2 -1 -30 3 -61 6 -49 9 -56
29 -56 17 0 24 7 28 29 16 79 106 112 154 56 18 -20 23 -38 23 -79 l0 -53 -62
-13 c-130 -25 -196 -75 -205 -154 -5 -42 -3 -48 30 -81 32 -32 39 -35 97 -35
66 0 90 9 133 48 l27 26 0 -32 c0 -42 15 -47 84 -27 48 14 56 20 56 41 0 17
-6 24 -19 24 -10 0 -23 6 -29 13 -5 6 -12 75 -14 152 -5 157 -16 192 -71 225
-42 26 -134 26 -206 0z m179 -276 c0 -62 -24 -109 -66 -129 -29 -14 -38 -14
-61 -3 -79 38 -41 144 58 168 66 16 69 14 69 -36z"/>
<path d="M7013 1219 c-133 -65 -165 -291 -59 -407 42 -47 92 -64 176 -60 64 2
84 8 119 31 46 30 60 52 43 69 -7 7 -19 4 -38 -11 -80 -63 -197 -42 -234 42
-10 23 -21 57 -25 75 l-7 32 151 0 c150 0 152 0 162 24 24 53 -36 177 -102
211 -42 22 -136 19 -186 -6z m141 -48 c23 -20 46 -72 46 -106 l0 -25 -106 0
-106 0 7 37 c10 57 33 93 68 108 35 15 62 11 91 -14z"/>
<path d="M7990 1234 c-8 -3 -34 -12 -57 -20 l-43 -16 0 -59 c0 -58 0 -59 29
-59 25 0 30 5 35 33 14 76 99 105 151 52 20 -20 25 -34 25 -78 l0 -54 -78 -16
c-155 -34 -227 -121 -178 -216 19 -36 55 -51 124 -51 59 0 117 25 128 55 10
26 24 17 24 -15 0 -36 19 -47 58 -32 15 6 39 13 55 16 20 5 27 12 27 31 0 18
-5 25 -19 25 -10 0 -23 6 -29 13 -5 6 -12 73 -14 147 -6 155 -20 199 -70 230
-32 19 -127 27 -168 14z m140 -289 c0 -103 -81 -173 -143 -125 -58 46 -23 134
63 158 72 21 80 17 80 -33z"/>
<path d="M9295 1226 c-83 -36 -135 -113 -143 -212 -12 -155 84 -264 235 -264
140 0 229 84 241 226 12 157 -85 265 -237 264 -37 -1 -79 -7 -96 -14z m157
-58 c94 -66 97 -308 3 -358 -36 -19 -92 -16 -124 7 -14 11 -36 39 -49 64 -20
39 -23 56 -20 139 3 80 7 100 26 127 38 53 106 62 164 21z"/>
<path d="M1269 886 c-9 -20 -4 -66 26 -228 20 -112 41 -220 46 -240 14 -55 45
-59 110 -17 42 26 53 30 60 18 4 -8 41 -63 81 -124 83 -125 109 -143 156 -108
49 36 42 66 -42 197 -42 64 -76 120 -76 124 0 4 23 22 50 40 40 26 50 38 50
60 0 25 -21 42 -199 165 -211 145 -242 158 -262 113z"/>
</g>
</svg>
